<svg xmlns="http://www.w3.org/2000/svg" viewBox="0 0 128 128" fill="none">
  <!-- Background -->
  <rect width="128" height="128" rx="24" fill="#1a1a1a"/>

  <!-- Leaf -->
  <path d="M64 35C64 35 50 42 50 58C50 74 64 82 64 82C64 82 78 74 78 58C78 42 64 35 64 35Z"
        fill="#22c55e" opacity="0.9"/>
  <path d="M64 35C64 35 64 35 64 82" stroke="#16a34a" stroke-width="2" stroke-linecap="round"/>

  <!-- Fork -->
  <g transform="translate(38, 70)">
    <line x1="8" y1="0" x2="8" y2="25" stroke="#f5f5f5" stroke-width="2.5" stroke-linecap="round"/>
    <line x1="3" y1="0" x2="3" y2="12" stroke="#f5f5f5" stroke-width="2.5" stroke-linecap="round"/>
    <line x1="8" y1="0" x2="8" y2="12" stroke="#f5f5f5" stroke-width="2.5" stroke-linecap="round"/>
    <line x1="13" y1="0" x2="13" y2="12" stroke="#f5f5f5" stroke-width="2.5" stroke-linecap="round"/>
  </g>

  <!-- Knife -->
  <g transform="translate(72, 70)">
    <line x1="8" y1="0" x2="8" y2="25" stroke="#f5f5f5" stroke-width="3" stroke-linecap="round"/>
    <path d="M5 0L11 0L8 8L5 0Z" fill="#f5f5f5"/>
  </g>
</svg>
